<mxfile host="app.diagrams.net" modified="2020-07-02T12:05:56.117Z" agent="5.0 (Macintosh; Intel Mac OS X 10_14_5) AppleWebKit/537.36 (KHTML, like Gecko) Chrome/83.0.4103.116 Safari/537.36" etag="GITq5GVlkwrZYYvjD3a_" version="13.3.5" type="github" pages="6">
  <diagram id="C5RBs43oDa-KdzZeNtuy" name="应用架构">
    <mxGraphModel dx="2066" dy="460" grid="1" gridSize="10" guides="1" tooltips="1" connect="1" arrows="1" fold="1" page="1" pageScale="1" pageWidth="827" pageHeight="1169" math="0" shadow="0">
      <root>
        <mxCell id="WIyWlLk6GJQsqaUBKTNV-0" />
        <mxCell id="WIyWlLk6GJQsqaUBKTNV-1" parent="WIyWlLk6GJQsqaUBKTNV-0" />
        <mxCell id="9ovW3u5wsRPhVOZ_OJPM-5" value="" style="rounded=0;whiteSpace=wrap;html=1;dashed=1;" parent="WIyWlLk6GJQsqaUBKTNV-1" vertex="1">
          <mxGeometry x="19" y="40" width="790" height="130" as="geometry" />
        </mxCell>
        <mxCell id="9ovW3u5wsRPhVOZ_OJPM-0" value="创建任务" style="rounded=0;whiteSpace=wrap;html=1;fillColor=#dae8fc;strokeColor=none;" parent="WIyWlLk6GJQsqaUBKTNV-1" vertex="1">
          <mxGeometry x="39" y="80" width="90" height="70" as="geometry" />
        </mxCell>
        <mxCell id="9ovW3u5wsRPhVOZ_OJPM-1" value="选择人群" style="rounded=0;whiteSpace=wrap;html=1;fillColor=#dae8fc;strokeColor=none;" parent="WIyWlLk6GJQsqaUBKTNV-1" vertex="1">
          <mxGeometry x="369" y="80" width="90" height="30" as="geometry" />
        </mxCell>
        <mxCell id="9ovW3u5wsRPhVOZ_OJPM-2" value="BPMS审核" style="rounded=0;whiteSpace=wrap;html=1;fillColor=#dae8fc;strokeColor=none;" parent="WIyWlLk6GJQsqaUBKTNV-1" vertex="1">
          <mxGeometry x="589" y="81" width="90" height="70" as="geometry" />
        </mxCell>
        <mxCell id="9ovW3u5wsRPhVOZ_OJPM-6" value="任务投放" style="rounded=0;whiteSpace=wrap;html=1;fillColor=#dae8fc;strokeColor=none;" parent="WIyWlLk6GJQsqaUBKTNV-1" vertex="1">
          <mxGeometry x="39" y="30" width="90" height="20" as="geometry" />
        </mxCell>
        <mxCell id="9ovW3u5wsRPhVOZ_OJPM-7" value="选择策略" style="rounded=0;whiteSpace=wrap;html=1;fillColor=#dae8fc;strokeColor=none;" parent="WIyWlLk6GJQsqaUBKTNV-1" vertex="1">
          <mxGeometry x="149" y="80" width="90" height="70" as="geometry" />
        </mxCell>
        <mxCell id="9ovW3u5wsRPhVOZ_OJPM-8" value="选择渠道" style="rounded=0;whiteSpace=wrap;html=1;fillColor=#dae8fc;strokeColor=none;" parent="WIyWlLk6GJQsqaUBKTNV-1" vertex="1">
          <mxGeometry x="478" y="80" width="90" height="30" as="geometry" />
        </mxCell>
        <mxCell id="9ovW3u5wsRPhVOZ_OJPM-9" value="选择权益" style="rounded=0;whiteSpace=wrap;html=1;fillColor=#dae8fc;strokeColor=none;" parent="WIyWlLk6GJQsqaUBKTNV-1" vertex="1">
          <mxGeometry x="259" y="80" width="90" height="30" as="geometry" />
        </mxCell>
        <mxCell id="9ovW3u5wsRPhVOZ_OJPM-10" value="个性化投放" style="rounded=0;whiteSpace=wrap;html=1;fillColor=#dae8fc;strokeColor=none;" parent="WIyWlLk6GJQsqaUBKTNV-1" vertex="1">
          <mxGeometry x="259" y="120" width="310" height="31" as="geometry" />
        </mxCell>
        <mxCell id="9ovW3u5wsRPhVOZ_OJPM-11" value="发布" style="rounded=0;whiteSpace=wrap;html=1;fillColor=#dae8fc;strokeColor=none;" parent="WIyWlLk6GJQsqaUBKTNV-1" vertex="1">
          <mxGeometry x="699" y="81" width="90" height="70" as="geometry" />
        </mxCell>
        <mxCell id="9ovW3u5wsRPhVOZ_OJPM-12" value="" style="rounded=0;whiteSpace=wrap;html=1;dashed=1;" parent="WIyWlLk6GJQsqaUBKTNV-1" vertex="1">
          <mxGeometry x="19" y="200" width="790" height="130" as="geometry" />
        </mxCell>
        <mxCell id="9ovW3u5wsRPhVOZ_OJPM-16" value="任务触达" style="rounded=0;whiteSpace=wrap;html=1;fillColor=#d5e8d4;strokeColor=none;" parent="WIyWlLk6GJQsqaUBKTNV-1" vertex="1">
          <mxGeometry x="39" y="190" width="90" height="20" as="geometry" />
        </mxCell>
        <mxCell id="9ovW3u5wsRPhVOZ_OJPM-26" value="资源位触达" style="rounded=0;whiteSpace=wrap;html=1;fillColor=#d5e8d4;strokeColor=none;" parent="WIyWlLk6GJQsqaUBKTNV-1" vertex="1">
          <mxGeometry x="39" y="230" width="90" height="30" as="geometry" />
        </mxCell>
        <mxCell id="9ovW3u5wsRPhVOZ_OJPM-27" value="素材透出接口" style="rounded=0;whiteSpace=wrap;html=1;fillColor=#d5e8d4;strokeColor=none;" parent="WIyWlLk6GJQsqaUBKTNV-1" vertex="1">
          <mxGeometry x="149" y="230" width="90" height="30" as="geometry" />
        </mxCell>
        <mxCell id="9ovW3u5wsRPhVOZ_OJPM-28" value="任务触达接口" style="rounded=0;whiteSpace=wrap;html=1;fillColor=#d5e8d4;strokeColor=none;" parent="WIyWlLk6GJQsqaUBKTNV-1" vertex="1">
          <mxGeometry x="259" y="230" width="90" height="70" as="geometry" />
        </mxCell>
        <mxCell id="9ovW3u5wsRPhVOZ_OJPM-29" value="PUSH触达" style="rounded=0;whiteSpace=wrap;html=1;fillColor=#E6E6E6;strokeColor=none;" parent="WIyWlLk6GJQsqaUBKTNV-1" vertex="1">
          <mxGeometry x="39" y="270" width="90" height="30" as="geometry" />
        </mxCell>
        <mxCell id="9ovW3u5wsRPhVOZ_OJPM-30" value="定时任务" style="rounded=0;whiteSpace=wrap;html=1;fillColor=#E6E6E6;strokeColor=none;" parent="WIyWlLk6GJQsqaUBKTNV-1" vertex="1">
          <mxGeometry x="149" y="270" width="90" height="30" as="geometry" />
        </mxCell>
        <mxCell id="9ovW3u5wsRPhVOZ_OJPM-31" value="任务匹配" style="rounded=0;whiteSpace=wrap;html=1;fillColor=#d5e8d4;strokeColor=none;" parent="WIyWlLk6GJQsqaUBKTNV-1" vertex="1">
          <mxGeometry x="369" y="245" width="90" height="45" as="geometry" />
        </mxCell>
        <mxCell id="9ovW3u5wsRPhVOZ_OJPM-32" value="权益匹配" style="rounded=0;whiteSpace=wrap;html=1;fillColor=#d5e8d4;strokeColor=none;" parent="WIyWlLk6GJQsqaUBKTNV-1" vertex="1">
          <mxGeometry x="479" y="245" width="90" height="45" as="geometry" />
        </mxCell>
        <mxCell id="9ovW3u5wsRPhVOZ_OJPM-35" value="生成&lt;br&gt;任务触达流水" style="rounded=0;whiteSpace=wrap;html=1;fillColor=#d5e8d4;strokeColor=none;" parent="WIyWlLk6GJQsqaUBKTNV-1" vertex="1">
          <mxGeometry x="589" y="245" width="90" height="45" as="geometry" />
        </mxCell>
        <mxCell id="9ovW3u5wsRPhVOZ_OJPM-36" value="曝光/打开 埋点任务触达流水id" style="rounded=0;whiteSpace=wrap;html=1;fillColor=#d5e8d4;strokeColor=none;" parent="WIyWlLk6GJQsqaUBKTNV-1" vertex="1">
          <mxGeometry x="699" y="230" width="90" height="70" as="geometry" />
        </mxCell>
        <mxCell id="9ovW3u5wsRPhVOZ_OJPM-38" value="" style="rounded=0;whiteSpace=wrap;html=1;dashed=1;" parent="WIyWlLk6GJQsqaUBKTNV-1" vertex="1">
          <mxGeometry x="19" y="362" width="790" height="130" as="geometry" />
        </mxCell>
        <mxCell id="9ovW3u5wsRPhVOZ_OJPM-39" value="效果跟踪" style="rounded=0;whiteSpace=wrap;html=1;fillColor=#fff2cc;strokeColor=none;" parent="WIyWlLk6GJQsqaUBKTNV-1" vertex="1">
          <mxGeometry x="39" y="352" width="90" height="20" as="geometry" />
        </mxCell>
        <mxCell id="9ovW3u5wsRPhVOZ_OJPM-40" value="资源位埋点数据" style="rounded=0;whiteSpace=wrap;html=1;fillColor=#fff2cc;strokeColor=none;" parent="WIyWlLk6GJQsqaUBKTNV-1" vertex="1">
          <mxGeometry x="39" y="392" width="90" height="30" as="geometry" />
        </mxCell>
        <mxCell id="9ovW3u5wsRPhVOZ_OJPM-42" value="d2&lt;br&gt;任务效果计算" style="rounded=0;whiteSpace=wrap;html=1;fillColor=#fff2cc;strokeColor=none;" parent="WIyWlLk6GJQsqaUBKTNV-1" vertex="1">
          <mxGeometry x="149" y="392" width="90" height="70" as="geometry" />
        </mxCell>
        <mxCell id="9ovW3u5wsRPhVOZ_OJPM-43" value="PUSH埋点数据" style="rounded=0;whiteSpace=wrap;html=1;fillColor=#E6E6E6;strokeColor=none;" parent="WIyWlLk6GJQsqaUBKTNV-1" vertex="1">
          <mxGeometry x="39" y="432" width="90" height="30" as="geometry" />
        </mxCell>
        <mxCell id="9ovW3u5wsRPhVOZ_OJPM-48" value="算法推荐" style="rounded=0;whiteSpace=wrap;html=1;fillColor=#E6E6E6;strokeColor=none;fontColor=#333333;" parent="WIyWlLk6GJQsqaUBKTNV-1" vertex="1">
          <mxGeometry x="479" y="394.5" width="90" height="70" as="geometry" />
        </mxCell>
        <mxCell id="9ovW3u5wsRPhVOZ_OJPM-60" value="d2&lt;br&gt;人群偏好计算" style="rounded=0;whiteSpace=wrap;html=1;fillColor=#fff2cc;strokeColor=none;" parent="WIyWlLk6GJQsqaUBKTNV-1" vertex="1">
          <mxGeometry x="259" y="394.5" width="90" height="70" as="geometry" />
        </mxCell>
        <mxCell id="9ovW3u5wsRPhVOZ_OJPM-62" value="FBI报表&lt;br&gt;效果、偏好" style="rounded=0;whiteSpace=wrap;html=1;fillColor=#fff2cc;strokeColor=none;" parent="WIyWlLk6GJQsqaUBKTNV-1" vertex="1">
          <mxGeometry x="369" y="394.5" width="90" height="70" as="geometry" />
        </mxCell>
        <mxCell id="9ovW3u5wsRPhVOZ_OJPM-63" value="人群放大" style="rounded=0;whiteSpace=wrap;html=1;fillColor=#E6E6E6;strokeColor=none;fontColor=#333333;" parent="WIyWlLk6GJQsqaUBKTNV-1" vertex="1">
          <mxGeometry x="589" y="392" width="90" height="30" as="geometry" />
        </mxCell>
        <mxCell id="9ovW3u5wsRPhVOZ_OJPM-64" value="生成策略" style="rounded=0;whiteSpace=wrap;html=1;fillColor=#E6E6E6;strokeColor=none;fontColor=#333333;" parent="WIyWlLk6GJQsqaUBKTNV-1" vertex="1">
          <mxGeometry x="699" y="394.5" width="90" height="70" as="geometry" />
        </mxCell>
        <mxCell id="9ovW3u5wsRPhVOZ_OJPM-65" value="偏好标签" style="rounded=0;whiteSpace=wrap;html=1;fillColor=#E6E6E6;strokeColor=none;fontColor=#333333;" parent="WIyWlLk6GJQsqaUBKTNV-1" vertex="1">
          <mxGeometry x="589" y="434.5" width="90" height="30" as="geometry" />
        </mxCell>
        <mxCell id="H4fOXFr-arFQLoANJNRy-0" value="" style="rounded=0;whiteSpace=wrap;html=1;dashed=1;" parent="WIyWlLk6GJQsqaUBKTNV-1" vertex="1">
          <mxGeometry x="19" y="525" width="790" height="130" as="geometry" />
        </mxCell>
        <mxCell id="H4fOXFr-arFQLoANJNRy-1" value="依赖" style="rounded=0;whiteSpace=wrap;html=1;fillColor=#f8cecc;strokeColor=none;" parent="WIyWlLk6GJQsqaUBKTNV-1" vertex="1">
          <mxGeometry x="39" y="515" width="90" height="20" as="geometry" />
        </mxCell>
        <mxCell id="H4fOXFr-arFQLoANJNRy-3" value="触达平台" style="rounded=0;whiteSpace=wrap;html=1;fillColor=#f8cecc;strokeColor=none;" parent="WIyWlLk6GJQsqaUBKTNV-1" vertex="1">
          <mxGeometry x="259" y="555" width="90" height="70" as="geometry" />
        </mxCell>
        <mxCell id="H4fOXFr-arFQLoANJNRy-6" value="圈人平台" style="rounded=0;whiteSpace=wrap;html=1;fillColor=#f8cecc;strokeColor=none;" parent="WIyWlLk6GJQsqaUBKTNV-1" vertex="1">
          <mxGeometry x="369" y="555" width="90" height="70" as="geometry" />
        </mxCell>
        <mxCell id="H4fOXFr-arFQLoANJNRy-7" value="FBI" style="rounded=0;whiteSpace=wrap;html=1;fillColor=#f8cecc;strokeColor=none;" parent="WIyWlLk6GJQsqaUBKTNV-1" vertex="1">
          <mxGeometry x="479" y="555" width="90" height="70" as="geometry" />
        </mxCell>
        <mxCell id="H4fOXFr-arFQLoANJNRy-11" value="权益池" style="rounded=0;whiteSpace=wrap;html=1;fillColor=#f8cecc;strokeColor=none;" parent="WIyWlLk6GJQsqaUBKTNV-1" vertex="1">
          <mxGeometry x="149" y="555" width="90" height="70" as="geometry" />
        </mxCell>
        <mxCell id="H4fOXFr-arFQLoANJNRy-14" value="算法平台" style="rounded=0;whiteSpace=wrap;html=1;fillColor=#f8cecc;strokeColor=none;" parent="WIyWlLk6GJQsqaUBKTNV-1" vertex="1">
          <mxGeometry x="589" y="555" width="90" height="70" as="geometry" />
        </mxCell>
        <mxCell id="H4fOXFr-arFQLoANJNRy-15" value="运营工作台" style="rounded=0;whiteSpace=wrap;html=1;fillColor=#f8cecc;strokeColor=none;" parent="WIyWlLk6GJQsqaUBKTNV-1" vertex="1">
          <mxGeometry x="39" y="555" width="90" height="70" as="geometry" />
        </mxCell>
        <mxCell id="H4fOXFr-arFQLoANJNRy-16" value="trace数据" style="rounded=0;whiteSpace=wrap;html=1;fillColor=#f8cecc;strokeColor=none;" parent="WIyWlLk6GJQsqaUBKTNV-1" vertex="1">
          <mxGeometry x="699" y="555" width="90" height="70" as="geometry" />
        </mxCell>
      </root>
    </mxGraphModel>
  </diagram>
  <diagram id="CDjk4Om2ZdkvhCIMZ349" name="ER图">
    
    <mxGraphModel dx="2306" dy="1131" grid="1" gridSize="10" guides="1" tooltips="1" connect="1" arrows="1" fold="1" page="1" pageScale="1" pageWidth="827" pageHeight="1169" math="0" shadow="0">
      
      <root>
        
        <mxCell id="rNs8w5V5gZENrI2ZMU0C-0" />
        
        <mxCell id="rNs8w5V5gZENrI2ZMU0C-1" parent="rNs8w5V5gZENrI2ZMU0C-0" />
        
        <mxCell id="3-wZ1371RCJKVysMCvjc-0" value="&lt;div style=&quot;box-sizing: border-box ; width: 100% ; background: #e4e4e4 ; padding: 2px&quot;&gt;grow_task（任务表）&lt;/div&gt;&lt;table style=&quot;width: 100% ; font-size: 1em&quot; cellpadding=&quot;2&quot; cellspacing=&quot;0&quot;&gt;&lt;tbody&gt;&lt;tr&gt;&lt;td&gt;PK&lt;/td&gt;&lt;td&gt;id&lt;/td&gt;&lt;/tr&gt;&lt;tr&gt;&lt;td&gt;&lt;br&gt;&lt;/td&gt;&lt;td&gt;name&lt;/td&gt;&lt;/tr&gt;&lt;tr&gt;&lt;td&gt;&lt;br&gt;&lt;/td&gt;&lt;td&gt;type&lt;/td&gt;&lt;/tr&gt;&lt;tr&gt;&lt;td&gt;&lt;/td&gt;&lt;td&gt;status&lt;/td&gt;&lt;/tr&gt;&lt;/tbody&gt;&lt;/table&gt;" style="verticalAlign=top;align=left;overflow=fill;html=1;" parent="rNs8w5V5gZENrI2ZMU0C-1" vertex="1">
          
          <mxGeometry x="100" y="146" width="150" height="90" as="geometry" />
          
        </mxCell>
        
        <mxCell id="3-wZ1371RCJKVysMCvjc-1" value="&lt;div style=&quot;box-sizing: border-box ; width: 100% ; background: #e4e4e4 ; padding: 2px&quot;&gt;grow_task_relation（任务关联表）&lt;/div&gt;&lt;table style=&quot;width: 100% ; font-size: 1em&quot; cellpadding=&quot;2&quot; cellspacing=&quot;0&quot;&gt;&lt;tbody&gt;&lt;tr&gt;&lt;td&gt;PK&lt;/td&gt;&lt;td&gt;id&lt;/td&gt;&lt;/tr&gt;&lt;tr&gt;&lt;td&gt;FK1&lt;/td&gt;&lt;td&gt;grow_task_id&lt;/td&gt;&lt;/tr&gt;&lt;tr&gt;&lt;td&gt;FK2&lt;/td&gt;&lt;td&gt;relation_type&lt;/td&gt;&lt;/tr&gt;&lt;tr&gt;&lt;td&gt;FK2&lt;/td&gt;&lt;td&gt;relation_id&lt;br&gt;&lt;/td&gt;&lt;/tr&gt;&lt;tr&gt;&lt;td&gt;&lt;br&gt;&lt;/td&gt;&lt;td&gt;status&lt;/td&gt;&lt;/tr&gt;&lt;/tbody&gt;&lt;/table&gt;" style="verticalAlign=top;align=left;overflow=fill;html=1;" parent="rNs8w5V5gZENrI2ZMU0C-1" vertex="1">
          
          <mxGeometry x="374" y="125" width="200" height="120" as="geometry" />
          
        </mxCell>
        
        <mxCell id="3-wZ1371RCJKVysMCvjc-8" value="&lt;div style=&quot;box-sizing: border-box ; width: 100% ; background: #e4e4e4 ; padding: 2px&quot;&gt;grow_right（权益表）&lt;/div&gt;&lt;table style=&quot;width: 100% ; font-size: 1em&quot; cellpadding=&quot;2&quot; cellspacing=&quot;0&quot;&gt;&lt;tbody&gt;&lt;tr&gt;&lt;td&gt;PK&lt;/td&gt;&lt;td&gt;id&lt;/td&gt;&lt;/tr&gt;&lt;tr&gt;&lt;td&gt;&lt;br&gt;&lt;/td&gt;&lt;td&gt;name&lt;/td&gt;&lt;/tr&gt;&lt;tr&gt;&lt;td&gt;FK1&lt;/td&gt;&lt;td&gt;relation_type&lt;/td&gt;&lt;/tr&gt;&lt;tr&gt;&lt;td&gt;FK1&lt;/td&gt;&lt;td&gt;relation_id&lt;br&gt;&lt;/td&gt;&lt;/tr&gt;&lt;tr&gt;&lt;td&gt;&lt;br&gt;&lt;/td&gt;&lt;td&gt;type&lt;/td&gt;&lt;/tr&gt;&lt;tr&gt;&lt;td&gt;&lt;br&gt;&lt;/td&gt;&lt;td&gt;status&lt;/td&gt;&lt;/tr&gt;&lt;/tbody&gt;&lt;/table&gt;" style="verticalAlign=top;align=left;overflow=fill;html=1;" parent="rNs8w5V5gZENrI2ZMU0C-1" vertex="1">
          
          <mxGeometry x="706" y="10" width="180" height="130" as="geometry" />
          
        </mxCell>
        
        <mxCell id="3-wZ1371RCJKVysMCvjc-9" value="&lt;div style=&quot;box-sizing: border-box ; width: 100% ; background: #e4e4e4 ; padding: 2px&quot;&gt;grow_crowd（人群表）&lt;/div&gt;&lt;table style=&quot;width: 100% ; font-size: 1em&quot; cellpadding=&quot;2&quot; cellspacing=&quot;0&quot;&gt;&lt;tbody&gt;&lt;tr&gt;&lt;td&gt;PK&lt;/td&gt;&lt;td&gt;id&lt;/td&gt;&lt;/tr&gt;&lt;tr&gt;&lt;td&gt;FK1&lt;/td&gt;&lt;td&gt;crowd_id&lt;/td&gt;&lt;/tr&gt;&lt;tr&gt;&lt;td&gt;&lt;/td&gt;&lt;td&gt;name&lt;/td&gt;&lt;/tr&gt;&lt;tr&gt;&lt;td&gt;&lt;br&gt;&lt;/td&gt;&lt;td&gt;status&lt;/td&gt;&lt;/tr&gt;&lt;/tbody&gt;&lt;/table&gt;" style="verticalAlign=top;align=left;overflow=fill;html=1;" parent="rNs8w5V5gZENrI2ZMU0C-1" vertex="1">
          
          <mxGeometry x="706" y="170" width="180" height="100" as="geometry" />
          
        </mxCell>
        
        <mxCell id="3-wZ1371RCJKVysMCvjc-10" value="&lt;div style=&quot;box-sizing: border-box ; width: 100% ; background: #e4e4e4 ; padding: 2px&quot;&gt;grow_channel（渠道表）&lt;/div&gt;&lt;table style=&quot;width: 100% ; font-size: 1em&quot; cellpadding=&quot;2&quot; cellspacing=&quot;0&quot;&gt;&lt;tbody&gt;&lt;tr&gt;&lt;td&gt;PK&lt;/td&gt;&lt;td&gt;id&lt;/td&gt;&lt;/tr&gt;&lt;tr&gt;&lt;td&gt;&lt;br&gt;&lt;/td&gt;&lt;td&gt;name&lt;/td&gt;&lt;/tr&gt;&lt;tr&gt;&lt;td&gt;&lt;/td&gt;&lt;td&gt;type&lt;/td&gt;&lt;/tr&gt;&lt;tr&gt;&lt;td&gt;&lt;br&gt;&lt;/td&gt;&lt;td&gt;status&lt;/td&gt;&lt;/tr&gt;&lt;/tbody&gt;&lt;/table&gt;" style="verticalAlign=top;align=left;overflow=fill;html=1;" parent="rNs8w5V5gZENrI2ZMU0C-1" vertex="1">
          
          <mxGeometry x="706" y="300" width="180" height="90" as="geometry" />
          
        </mxCell>
        
        <mxCell id="3-wZ1371RCJKVysMCvjc-11" value="&lt;div style=&quot;box-sizing: border-box ; width: 100% ; background: #e4e4e4 ; padding: 2px&quot;&gt;grow_task_touch_detail（任务触达流水表）&lt;/div&gt;&lt;table style=&quot;width: 100% ; font-size: 1em&quot; cellpadding=&quot;2&quot; cellspacing=&quot;0&quot;&gt;&lt;tbody&gt;&lt;tr&gt;&lt;td&gt;PK&lt;/td&gt;&lt;td&gt;id&lt;/td&gt;&lt;/tr&gt;&lt;tr&gt;&lt;td&gt;&lt;br&gt;&lt;/td&gt;&lt;td&gt;user_id&lt;/td&gt;&lt;/tr&gt;&lt;tr&gt;&lt;td&gt;FK1&lt;/td&gt;&lt;td&gt;grow_task_id&lt;/td&gt;&lt;/tr&gt;&lt;tr&gt;&lt;td&gt;FK2&lt;br&gt;&lt;/td&gt;&lt;td&gt;grow_channel_id&lt;br&gt;&lt;/td&gt;&lt;/tr&gt;&lt;tr&gt;&lt;td&gt;FK3&lt;/td&gt;&lt;td&gt;grow_crowd_id&lt;br&gt;&lt;/td&gt;&lt;/tr&gt;&lt;tr&gt;&lt;td&gt;FK4&lt;/td&gt;&lt;td&gt;grow_right_id&lt;br&gt;&lt;/td&gt;&lt;/tr&gt;&lt;tr&gt;&lt;td&gt;&lt;br&gt;&lt;/td&gt;&lt;td&gt;&lt;br&gt;&lt;/td&gt;&lt;/tr&gt;&lt;tr&gt;&lt;td&gt;&lt;br&gt;&lt;/td&gt;&lt;td&gt;&lt;br&gt;&lt;/td&gt;&lt;/tr&gt;&lt;/tbody&gt;&lt;/table&gt;" style="verticalAlign=top;align=left;overflow=fill;html=1;" parent="rNs8w5V5gZENrI2ZMU0C-1" vertex="1">
          
          <mxGeometry x="374" y="340" width="240" height="140" as="geometry" />
          
        </mxCell>
        
        <mxCell id="3-wZ1371RCJKVysMCvjc-12" value="" style="endArrow=open;html=1;endSize=12;startArrow=diamondThin;startSize=14;startFill=0;edgeStyle=orthogonalEdgeStyle;entryX=1;entryY=0.333;entryDx=0;entryDy=0;entryPerimeter=0;" parent="rNs8w5V5gZENrI2ZMU0C-1" edge="1">
          
          <mxGeometry relative="1" as="geometry">
            
            <mxPoint x="364" y="170" as="sourcePoint" />
            
            <mxPoint x="254" y="169.97000000000003" as="targetPoint" />
            
          </mxGeometry>
          
        </mxCell>
        
        <mxCell id="3-wZ1371RCJKVysMCvjc-13" value="0..n" style="resizable=0;html=1;align=left;verticalAlign=top;labelBackgroundColor=#ffffff;fontSize=10;" parent="3-wZ1371RCJKVysMCvjc-12" connectable="0" vertex="1">
          
          <mxGeometry x="-1" relative="1" as="geometry">
            
            <mxPoint x="-30" as="offset" />
            
          </mxGeometry>
          
        </mxCell>
        
        <mxCell id="3-wZ1371RCJKVysMCvjc-14" value="1" style="resizable=0;html=1;align=right;verticalAlign=top;labelBackgroundColor=#ffffff;fontSize=10;" parent="3-wZ1371RCJKVysMCvjc-12" connectable="0" vertex="1">
          
          <mxGeometry x="1" relative="1" as="geometry">
            
            <mxPoint x="20" as="offset" />
            
          </mxGeometry>
          
        </mxCell>
        
        <mxCell id="3-wZ1371RCJKVysMCvjc-19" value="" style="endArrow=block;endFill=1;html=1;edgeStyle=orthogonalEdgeStyle;align=left;verticalAlign=top;entryX=0;entryY=0.25;entryDx=0;entryDy=0;" parent="rNs8w5V5gZENrI2ZMU0C-1" target="3-wZ1371RCJKVysMCvjc-8" edge="1">
          
          <mxGeometry x="-1" relative="1" as="geometry">
            
            <mxPoint x="574" y="200" as="sourcePoint" />
            
            <mxPoint x="614" y="110" as="targetPoint" />
            
          </mxGeometry>
          
        </mxCell>
        
        <mxCell id="3-wZ1371RCJKVysMCvjc-20" value="1" style="resizable=0;html=1;align=left;verticalAlign=bottom;labelBackgroundColor=#ffffff;fontSize=10;" parent="3-wZ1371RCJKVysMCvjc-19" connectable="0" vertex="1">
          
          <mxGeometry x="-1" relative="1" as="geometry" />
          
        </mxCell>
        
        <mxCell id="3-wZ1371RCJKVysMCvjc-27" value="" style="endArrow=block;endFill=1;html=1;edgeStyle=orthogonalEdgeStyle;align=left;verticalAlign=top;" parent="rNs8w5V5gZENrI2ZMU0C-1" edge="1">
          
          <mxGeometry x="-1" relative="1" as="geometry">
            
            <mxPoint x="574" y="200" as="sourcePoint" />
            
            <mxPoint x="704" y="200" as="targetPoint" />
            
          </mxGeometry>
          
        </mxCell>
        
        <mxCell id="3-wZ1371RCJKVysMCvjc-28" value="" style="resizable=0;html=1;align=left;verticalAlign=bottom;labelBackgroundColor=#ffffff;fontSize=10;" parent="3-wZ1371RCJKVysMCvjc-27" connectable="0" vertex="1">
          
          <mxGeometry x="-1" relative="1" as="geometry" />
          
        </mxCell>
        
        <mxCell id="3-wZ1371RCJKVysMCvjc-29" value="" style="endArrow=block;endFill=1;html=1;edgeStyle=orthogonalEdgeStyle;align=left;verticalAlign=top;entryX=0;entryY=0.25;entryDx=0;entryDy=0;" parent="rNs8w5V5gZENrI2ZMU0C-1" target="3-wZ1371RCJKVysMCvjc-10" edge="1">
          
          <mxGeometry x="-1" relative="1" as="geometry">
            
            <mxPoint x="574" y="200" as="sourcePoint" />
            
            <mxPoint x="734" y="200" as="targetPoint" />
            
          </mxGeometry>
          
        </mxCell>
        
        <mxCell id="3-wZ1371RCJKVysMCvjc-30" value="1" style="resizable=0;html=1;align=left;verticalAlign=bottom;labelBackgroundColor=#ffffff;fontSize=10;" parent="3-wZ1371RCJKVysMCvjc-29" connectable="0" vertex="1">
          
          <mxGeometry x="-1" relative="1" as="geometry" />
          
        </mxCell>
        
        <mxCell id="3-wZ1371RCJKVysMCvjc-31" value="" style="endArrow=open;html=1;endSize=12;startArrow=diamondThin;startSize=14;startFill=0;edgeStyle=orthogonalEdgeStyle;exitX=-0.021;exitY=0.45;exitDx=0;exitDy=0;exitPerimeter=0;" parent="rNs8w5V5gZENrI2ZMU0C-1" source="3-wZ1371RCJKVysMCvjc-11" edge="1">
          
          <mxGeometry relative="1" as="geometry">
            
            <mxPoint x="264" y="230.03" as="sourcePoint" />
            
            <mxPoint x="254" y="170" as="targetPoint" />
            
            <Array as="points">
              
              <mxPoint x="284" y="403" />
              
              <mxPoint x="284" y="170" />
              
            </Array>
            
          </mxGeometry>
          
        </mxCell>
        
        <mxCell id="3-wZ1371RCJKVysMCvjc-32" value="0..n" style="resizable=0;html=1;align=left;verticalAlign=top;labelBackgroundColor=#ffffff;fontSize=10;" parent="3-wZ1371RCJKVysMCvjc-31" connectable="0" vertex="1">
          
          <mxGeometry x="-1" relative="1" as="geometry">
            
            <mxPoint x="-40" y="-30" as="offset" />
            
          </mxGeometry>
          
        </mxCell>
        
        <mxCell id="3-wZ1371RCJKVysMCvjc-33" value="1" style="resizable=0;html=1;align=right;verticalAlign=top;labelBackgroundColor=#ffffff;fontSize=10;" parent="3-wZ1371RCJKVysMCvjc-31" connectable="0" vertex="1">
          
          <mxGeometry x="1" relative="1" as="geometry">
            
            <mxPoint x="20" as="offset" />
            
          </mxGeometry>
          
        </mxCell>
        
        <mxCell id="3-wZ1371RCJKVysMCvjc-34" value="&lt;div style=&quot;box-sizing: border-box ; width: 100% ; background: #e4e4e4 ; padding: 2px&quot;&gt;dwd_grow_task_result_detail（任务效果流水表）&lt;/div&gt;&lt;table style=&quot;width: 100% ; font-size: 1em&quot; cellpadding=&quot;2&quot; cellspacing=&quot;0&quot;&gt;&lt;tbody&gt;&lt;tr&gt;&lt;td&gt;PK&lt;/td&gt;&lt;td&gt;grow_task_touch_detail_id&lt;/td&gt;&lt;/tr&gt;&lt;tr&gt;&lt;td&gt;&lt;br&gt;&lt;/td&gt;&lt;td&gt;user_id&lt;/td&gt;&lt;/tr&gt;&lt;tr&gt;&lt;td&gt;&lt;/td&gt;&lt;td&gt;grow_task_id&lt;/td&gt;&lt;/tr&gt;&lt;tr&gt;&lt;td&gt;&lt;br&gt;&lt;/td&gt;&lt;td&gt;grow_channel_id&lt;br&gt;&lt;/td&gt;&lt;/tr&gt;&lt;tr&gt;&lt;td&gt;&lt;br&gt;&lt;/td&gt;&lt;td&gt;grow_crowd_id&lt;br&gt;&lt;/td&gt;&lt;/tr&gt;&lt;tr&gt;&lt;td&gt;&lt;br&gt;&lt;/td&gt;&lt;td&gt;grow_right_id&lt;br&gt;&lt;/td&gt;&lt;/tr&gt;&lt;tr&gt;&lt;td&gt;&lt;br&gt;&lt;/td&gt;&lt;td&gt;touch_times&lt;br&gt;&lt;/td&gt;&lt;/tr&gt;&lt;tr&gt;&lt;td&gt;&lt;br&gt;&lt;/td&gt;&lt;td&gt;open_times&lt;br&gt;&lt;/td&gt;&lt;/tr&gt;&lt;tr&gt;&lt;td&gt;&lt;br&gt;&lt;/td&gt;&lt;td&gt;join_times&lt;br&gt;&lt;/td&gt;&lt;/tr&gt;&lt;/tbody&gt;&lt;/table&gt;" style="verticalAlign=top;align=left;overflow=fill;html=1;" parent="rNs8w5V5gZENrI2ZMU0C-1" vertex="1">
          
          <mxGeometry x="100" y="540" width="270" height="210" as="geometry" />
          
        </mxCell>
        
        <mxCell id="3-wZ1371RCJKVysMCvjc-35" value="MYSQL" style="rounded=0;whiteSpace=wrap;html=1;" parent="rNs8w5V5gZENrI2ZMU0C-1" vertex="1">
          
          <mxGeometry width="60" height="90" as="geometry" />
          
        </mxCell>
        
        <mxCell id="3-wZ1371RCJKVysMCvjc-36" value="ODPS" style="rounded=0;whiteSpace=wrap;html=1;" parent="rNs8w5V5gZENrI2ZMU0C-1" vertex="1">
          
          <mxGeometry y="480" width="60" height="100" as="geometry" />
          
        </mxCell>
        
        <mxCell id="3-wZ1371RCJKVysMCvjc-37" value="&lt;div style=&quot;box-sizing: border-box ; width: 100% ; background: #e4e4e4 ; padding: 2px&quot;&gt;dwd_grow_task_result_crowd（人群任务效果表）&lt;/div&gt;&lt;table style=&quot;width: 100% ; font-size: 1em&quot; cellpadding=&quot;2&quot; cellspacing=&quot;0&quot;&gt;&lt;tbody&gt;&lt;tr&gt;&lt;td&gt;&lt;br&gt;&lt;/td&gt;&lt;td&gt;grow_task_id&lt;/td&gt;&lt;/tr&gt;&lt;tr&gt;&lt;td&gt;&lt;br&gt;&lt;/td&gt;&lt;td&gt;grow_crowd_id&lt;/td&gt;&lt;/tr&gt;&lt;tr&gt;&lt;td&gt;&lt;/td&gt;&lt;td&gt;grow_channel_id&lt;/td&gt;&lt;/tr&gt;&lt;tr&gt;&lt;td&gt;&lt;br&gt;&lt;/td&gt;&lt;td&gt;grow_right_id&lt;br&gt;&lt;/td&gt;&lt;/tr&gt;&lt;tr&gt;&lt;td&gt;&lt;br&gt;&lt;/td&gt;&lt;td&gt;touch_times&lt;br&gt;&lt;/td&gt;&lt;/tr&gt;&lt;tr&gt;&lt;td&gt;&lt;br&gt;&lt;/td&gt;&lt;td&gt;touch_percent&lt;br&gt;&lt;/td&gt;&lt;/tr&gt;&lt;tr&gt;&lt;td&gt;&lt;br&gt;&lt;/td&gt;&lt;td&gt;open_times&lt;br&gt;&lt;/td&gt;&lt;/tr&gt;&lt;tr&gt;&lt;td&gt;&lt;br&gt;&lt;/td&gt;&lt;td&gt;open_percent&lt;br&gt;&lt;/td&gt;&lt;/tr&gt;&lt;tr&gt;&lt;td&gt;&lt;br&gt;&lt;/td&gt;&lt;td&gt;join_times&lt;br&gt;&lt;/td&gt;&lt;/tr&gt;&lt;tr&gt;&lt;td&gt;&lt;br&gt;&lt;/td&gt;&lt;td&gt;join_percent&lt;br&gt;&lt;/td&gt;&lt;/tr&gt;&lt;/tbody&gt;&lt;/table&gt;" style="verticalAlign=top;align=left;overflow=fill;html=1;" parent="rNs8w5V5gZENrI2ZMU0C-1" vertex="1">
          
          <mxGeometry x="606" y="540" width="280" height="210" as="geometry" />
          
        </mxCell>
        
        <mxCell id="3-wZ1371RCJKVysMCvjc-38" value="group by" style="endArrow=open;html=1;endSize=12;startArrow=diamondThin;startSize=14;startFill=0;edgeStyle=orthogonalEdgeStyle;entryX=0;entryY=0.25;entryDx=0;entryDy=0;" parent="rNs8w5V5gZENrI2ZMU0C-1" source="3-wZ1371RCJKVysMCvjc-34" target="3-wZ1371RCJKVysMCvjc-37" edge="1">
          
          <mxGeometry relative="1" as="geometry">
            
            <mxPoint x="370" y="645" as="sourcePoint" />
            
            <mxPoint x="530" y="645" as="targetPoint" />
            
          </mxGeometry>
          
        </mxCell>
        
        <mxCell id="3-wZ1371RCJKVysMCvjc-39" value="1" style="resizable=0;html=1;align=left;verticalAlign=top;labelBackgroundColor=#ffffff;fontSize=10;" parent="3-wZ1371RCJKVysMCvjc-38" connectable="0" vertex="1">
          
          <mxGeometry x="-1" relative="1" as="geometry">
            
            <mxPoint x="10" as="offset" />
            
          </mxGeometry>
          
        </mxCell>
        
        <mxCell id="3-wZ1371RCJKVysMCvjc-40" value="&lt;span style=&quot;text-align: left&quot;&gt;0..n&lt;/span&gt;" style="resizable=0;html=1;align=right;verticalAlign=top;labelBackgroundColor=#ffffff;fontSize=10;" parent="3-wZ1371RCJKVysMCvjc-38" connectable="0" vertex="1">
          
          <mxGeometry x="1" relative="1" as="geometry">
            
            <mxPoint x="-10.5" as="offset" />
            
          </mxGeometry>
          
        </mxCell>
        
        <mxCell id="3-wZ1371RCJKVysMCvjc-41" value="&lt;div style=&quot;box-sizing: border-box ; width: 100% ; background: #e4e4e4 ; padding: 2px&quot;&gt;dwd_grow_task_preference（会员偏好表）&lt;/div&gt;&lt;table style=&quot;width: 100% ; font-size: 1em&quot; cellpadding=&quot;2&quot; cellspacing=&quot;0&quot;&gt;&lt;tbody&gt;&lt;tr&gt;&lt;td&gt;&lt;br&gt;&lt;/td&gt;&lt;td&gt;user_id&lt;/td&gt;&lt;/tr&gt;&lt;tr&gt;&lt;td&gt;&lt;br&gt;&lt;/td&gt;&lt;td&gt;grow_crowd_id&lt;/td&gt;&lt;/tr&gt;&lt;tr&gt;&lt;td&gt;&lt;/td&gt;&lt;td&gt;relation_type&lt;/td&gt;&lt;/tr&gt;&lt;tr&gt;&lt;td&gt;&lt;br&gt;&lt;/td&gt;&lt;td&gt;relation_id&lt;br&gt;&lt;/td&gt;&lt;/tr&gt;&lt;tr&gt;&lt;td&gt;&lt;br&gt;&lt;/td&gt;&lt;td&gt;score&lt;br&gt;&lt;/td&gt;&lt;/tr&gt;&lt;/tbody&gt;&lt;/table&gt;" style="verticalAlign=top;align=left;overflow=fill;html=1;" parent="rNs8w5V5gZENrI2ZMU0C-1" vertex="1">
          
          <mxGeometry x="100" y="810" width="270" height="110" as="geometry" />
          
        </mxCell>
        
        <mxCell id="3-wZ1371RCJKVysMCvjc-42" value="&lt;div style=&quot;box-sizing: border-box ; width: 100% ; background: #e4e4e4 ; padding: 2px&quot;&gt;dwd_grow_task_preference_crowd（人群偏好表）&lt;/div&gt;&lt;table style=&quot;width: 100% ; font-size: 1em&quot; cellpadding=&quot;2&quot; cellspacing=&quot;0&quot;&gt;&lt;tbody&gt;&lt;tr&gt;&lt;td&gt;&lt;br&gt;&lt;/td&gt;&lt;td&gt;grow_crowd_id&lt;/td&gt;&lt;/tr&gt;&lt;tr&gt;&lt;td&gt;&lt;br&gt;&lt;/td&gt;&lt;td&gt;relation_type&lt;/td&gt;&lt;/tr&gt;&lt;tr&gt;&lt;td&gt;&lt;/td&gt;&lt;td&gt;relation_id&lt;/td&gt;&lt;/tr&gt;&lt;tr&gt;&lt;td&gt;&lt;br&gt;&lt;/td&gt;&lt;td&gt;score&lt;br&gt;&lt;/td&gt;&lt;/tr&gt;&lt;/tbody&gt;&lt;/table&gt;" style="verticalAlign=top;align=left;overflow=fill;html=1;" parent="rNs8w5V5gZENrI2ZMU0C-1" vertex="1">
          
          <mxGeometry x="606" y="821" width="280" height="90" as="geometry" />
          
        </mxCell>
        
        <mxCell id="3-wZ1371RCJKVysMCvjc-44" value="group by" style="endArrow=open;html=1;endSize=12;startArrow=diamondThin;startSize=14;startFill=0;edgeStyle=orthogonalEdgeStyle;entryX=-0.01;entryY=0.333;entryDx=0;entryDy=0;entryPerimeter=0;" parent="rNs8w5V5gZENrI2ZMU0C-1" target="3-wZ1371RCJKVysMCvjc-42" edge="1">
          
          <mxGeometry relative="1" as="geometry">
            
            <mxPoint x="370" y="851" as="sourcePoint" />
            
            <mxPoint x="510" y="800" as="targetPoint" />
            
          </mxGeometry>
          
        </mxCell>
        
        <mxCell id="3-wZ1371RCJKVysMCvjc-45" value="1" style="resizable=0;html=1;align=left;verticalAlign=top;labelBackgroundColor=#ffffff;fontSize=10;" parent="3-wZ1371RCJKVysMCvjc-44" connectable="0" vertex="1">
          
          <mxGeometry x="-1" relative="1" as="geometry">
            
            <mxPoint x="10" as="offset" />
            
          </mxGeometry>
          
        </mxCell>
        
        <mxCell id="3-wZ1371RCJKVysMCvjc-46" value="&lt;span style=&quot;text-align: left&quot;&gt;0..n&lt;/span&gt;" style="resizable=0;html=1;align=right;verticalAlign=top;labelBackgroundColor=#ffffff;fontSize=10;" parent="3-wZ1371RCJKVysMCvjc-44" connectable="0" vertex="1">
          
          <mxGeometry x="1" relative="1" as="geometry">
            
            <mxPoint x="-10.5" as="offset" />
            
          </mxGeometry>
          
        </mxCell>
        
      </root>
      
    </mxGraphModel>
    
  </diagram>
  <diagram id="EmDjJf99zvH2K2Bu_JV5" name="排期计划">
    <mxGraphModel dx="2066" dy="460" grid="1" gridSize="10" guides="1" tooltips="1" connect="1" arrows="1" fold="1" page="1" pageScale="1" pageWidth="827" pageHeight="1169" math="0" shadow="0">
      <root>
        <mxCell id="XavXb-EXdznzJKwrtFlP-0" />
        <mxCell id="XavXb-EXdznzJKwrtFlP-1" parent="XavXb-EXdznzJKwrtFlP-0" />
        <mxCell id="ntyOeVK9D1UQmp_Ov8xf-3" value="06.19&lt;br&gt;&lt;br&gt;全部功能提测" style="rounded=0;whiteSpace=wrap;html=1;fillColor=#9AC7BF;strokeColor=none;" parent="XavXb-EXdznzJKwrtFlP-1" vertex="1">
          <mxGeometry x="470" y="80" width="91" height="70" as="geometry" />
        </mxCell>
        <mxCell id="ntyOeVK9D1UQmp_Ov8xf-8" value="" style="edgeStyle=orthogonalEdgeStyle;rounded=0;orthogonalLoop=1;jettySize=auto;html=1;" parent="XavXb-EXdznzJKwrtFlP-1" source="ntyOeVK9D1UQmp_Ov8xf-0" target="ntyOeVK9D1UQmp_Ov8xf-7" edge="1">
          <mxGeometry relative="1" as="geometry" />
        </mxCell>
        <mxCell id="ntyOeVK9D1UQmp_Ov8xf-0" value="06.04&lt;br&gt;&lt;br&gt;KO" style="rounded=0;whiteSpace=wrap;html=1;fillColor=#D5E8D4;strokeColor=none;" parent="XavXb-EXdznzJKwrtFlP-1" vertex="1">
          <mxGeometry x="39" y="80" width="91" height="70" as="geometry" />
        </mxCell>
        <mxCell id="ntyOeVK9D1UQmp_Ov8xf-4" value="" style="edgeStyle=orthogonalEdgeStyle;rounded=0;orthogonalLoop=1;jettySize=auto;html=1;" parent="XavXb-EXdznzJKwrtFlP-1" source="ntyOeVK9D1UQmp_Ov8xf-1" target="ntyOeVK9D1UQmp_Ov8xf-3" edge="1">
          <mxGeometry relative="1" as="geometry" />
        </mxCell>
        <mxCell id="ntyOeVK9D1UQmp_Ov8xf-1" value="06.12&lt;br&gt;&lt;br&gt;部分功能提测" style="rounded=0;whiteSpace=wrap;html=1;fillColor=#dae8fc;strokeColor=none;" parent="XavXb-EXdznzJKwrtFlP-1" vertex="1">
          <mxGeometry x="323" y="80" width="91" height="70" as="geometry" />
        </mxCell>
        <mxCell id="ntyOeVK9D1UQmp_Ov8xf-6" value="" style="edgeStyle=orthogonalEdgeStyle;rounded=0;orthogonalLoop=1;jettySize=auto;html=1;" parent="XavXb-EXdznzJKwrtFlP-1" source="ntyOeVK9D1UQmp_Ov8xf-3" target="ntyOeVK9D1UQmp_Ov8xf-5" edge="1">
          <mxGeometry relative="1" as="geometry" />
        </mxCell>
        <mxCell id="ntyOeVK9D1UQmp_Ov8xf-10" style="edgeStyle=orthogonalEdgeStyle;rounded=0;orthogonalLoop=1;jettySize=auto;html=1;entryX=0;entryY=0.5;entryDx=0;entryDy=0;" parent="XavXb-EXdznzJKwrtFlP-1" source="ntyOeVK9D1UQmp_Ov8xf-5" target="ntyOeVK9D1UQmp_Ov8xf-11" edge="1">
          <mxGeometry relative="1" as="geometry">
            <mxPoint x="860" y="115" as="targetPoint" />
          </mxGeometry>
        </mxCell>
        <mxCell id="ntyOeVK9D1UQmp_Ov8xf-5" value="06.22&lt;br&gt;&lt;br&gt;集成到运营工作台" style="rounded=0;whiteSpace=wrap;html=1;fillColor=#dae8fc;strokeColor=none;" parent="XavXb-EXdznzJKwrtFlP-1" vertex="1">
          <mxGeometry x="610" y="80" width="108" height="70" as="geometry" />
        </mxCell>
        <mxCell id="ntyOeVK9D1UQmp_Ov8xf-9" style="edgeStyle=orthogonalEdgeStyle;rounded=0;orthogonalLoop=1;jettySize=auto;html=1;exitX=1;exitY=0.5;exitDx=0;exitDy=0;entryX=0;entryY=0.5;entryDx=0;entryDy=0;" parent="XavXb-EXdznzJKwrtFlP-1" source="ntyOeVK9D1UQmp_Ov8xf-7" target="ntyOeVK9D1UQmp_Ov8xf-1" edge="1">
          <mxGeometry relative="1" as="geometry" />
        </mxCell>
        <mxCell id="ntyOeVK9D1UQmp_Ov8xf-7" value="06.10&lt;br&gt;&lt;br&gt;APP联调" style="rounded=0;whiteSpace=wrap;html=1;fillColor=#dae8fc;strokeColor=none;" parent="XavXb-EXdznzJKwrtFlP-1" vertex="1">
          <mxGeometry x="180" y="80" width="91" height="70" as="geometry" />
        </mxCell>
        <mxCell id="ntyOeVK9D1UQmp_Ov8xf-14" value="" style="edgeStyle=orthogonalEdgeStyle;rounded=0;orthogonalLoop=1;jettySize=auto;html=1;" parent="XavXb-EXdznzJKwrtFlP-1" source="ntyOeVK9D1UQmp_Ov8xf-11" target="ntyOeVK9D1UQmp_Ov8xf-13" edge="1">
          <mxGeometry relative="1" as="geometry" />
        </mxCell>
        <mxCell id="ntyOeVK9D1UQmp_Ov8xf-11" value="06.28&lt;br&gt;&lt;br&gt;预演" style="rounded=0;whiteSpace=wrap;html=1;fillColor=#dae8fc;strokeColor=none;" parent="XavXb-EXdznzJKwrtFlP-1" vertex="1">
          <mxGeometry x="770" y="80" width="91" height="70" as="geometry" />
        </mxCell>
        <mxCell id="ntyOeVK9D1UQmp_Ov8xf-13" value="06.30&lt;br&gt;&lt;br&gt;发布" style="rounded=0;whiteSpace=wrap;html=1;fillColor=#67AB9F;strokeColor=none;" parent="XavXb-EXdznzJKwrtFlP-1" vertex="1">
          <mxGeometry x="940" y="80" width="91" height="70" as="geometry" />
        </mxCell>
      </root>
    </mxGraphModel>
  </diagram>
  <diagram id="qTGYo9lgZ3rq0w7sF5eu" name="里程规则中心">
    
    <mxGraphModel dx="2306" dy="1131" grid="1" gridSize="10" guides="1" tooltips="1" connect="1" arrows="1" fold="1" page="1" pageScale="1" pageWidth="827" pageHeight="1169" math="0" shadow="0">
      
      <root>
        
        <mxCell id="VlUls14Qr7dA-7ATIV3V-0" />
        
        <mxCell id="VlUls14Qr7dA-7ATIV3V-1" parent="VlUls14Qr7dA-7ATIV3V-0" />
        
        <mxCell id="UlTXUrphSw9hJEKPX0pP-0" value="tripRule" style="rounded=0;whiteSpace=wrap;html=1;fillColor=#FFE599;strokeColor=none;" vertex="1" parent="VlUls14Qr7dA-7ATIV3V-1">
          
          <mxGeometry x="40" y="400" width="720" height="40" as="geometry" />
          
        </mxCell>
        
        <mxCell id="UlTXUrphSw9hJEKPX0pP-14" style="edgeStyle=orthogonalEdgeStyle;rounded=0;orthogonalLoop=1;jettySize=auto;html=1;entryX=0.375;entryY=0.025;entryDx=0;entryDy=0;entryPerimeter=0;" edge="1" parent="VlUls14Qr7dA-7ATIV3V-1" source="UlTXUrphSw9hJEKPX0pP-1" target="UlTXUrphSw9hJEKPX0pP-0">
          
          <mxGeometry relative="1" as="geometry" />
          
        </mxCell>
        
        <mxCell id="UlTXUrphSw9hJEKPX0pP-1" value="规则服务（fliggypoint）" style="rounded=0;whiteSpace=wrap;html=1;fillColor=#B9E0A5;strokeColor=none;" vertex="1" parent="VlUls14Qr7dA-7ATIV3V-1">
          
          <mxGeometry x="40" y="300" width="540" height="60" as="geometry" />
          
        </mxCell>
        
        <mxCell id="UlTXUrphSw9hJEKPX0pP-6" style="edgeStyle=orthogonalEdgeStyle;rounded=0;orthogonalLoop=1;jettySize=auto;html=1;exitX=0.5;exitY=1;exitDx=0;exitDy=0;entryX=0.131;entryY=0;entryDx=0;entryDy=0;entryPerimeter=0;" edge="1" parent="VlUls14Qr7dA-7ATIV3V-1" source="UlTXUrphSw9hJEKPX0pP-2" target="UlTXUrphSw9hJEKPX0pP-1">
          
          <mxGeometry relative="1" as="geometry" />
          
        </mxCell>
        
        <mxCell id="UlTXUrphSw9hJEKPX0pP-2" value="里程发放&lt;br&gt;（trippoint）" style="rounded=0;whiteSpace=wrap;html=1;fillColor=#dae8fc;strokeColor=none;" vertex="1" parent="VlUls14Qr7dA-7ATIV3V-1">
          
          <mxGeometry x="41" y="210" width="140" height="40" as="geometry" />
          
        </mxCell>
        
        <mxCell id="UlTXUrphSw9hJEKPX0pP-7" style="edgeStyle=orthogonalEdgeStyle;rounded=0;orthogonalLoop=1;jettySize=auto;html=1;exitX=0.5;exitY=1;exitDx=0;exitDy=0;entryX=0.411;entryY=0.017;entryDx=0;entryDy=0;entryPerimeter=0;" edge="1" parent="VlUls14Qr7dA-7ATIV3V-1" source="UlTXUrphSw9hJEKPX0pP-3" target="UlTXUrphSw9hJEKPX0pP-1">
          
          <mxGeometry relative="1" as="geometry">
            
            <mxPoint x="259.8000000000002" y="295.5" as="targetPoint" />
            
          </mxGeometry>
          
        </mxCell>
        
        <mxCell id="UlTXUrphSw9hJEKPX0pP-3" value="里程抵现&lt;br&gt;（fp-plugin）" style="rounded=0;whiteSpace=wrap;html=1;fillColor=#dae8fc;strokeColor=none;" vertex="1" parent="VlUls14Qr7dA-7ATIV3V-1">
          
          <mxGeometry x="212" y="210" width="100" height="40" as="geometry" />
          
        </mxCell>
        
        <mxCell id="UlTXUrphSw9hJEKPX0pP-9" style="edgeStyle=orthogonalEdgeStyle;rounded=0;orthogonalLoop=1;jettySize=auto;html=1;entryX=0.648;entryY=-0.025;entryDx=0;entryDy=0;entryPerimeter=0;" edge="1" parent="VlUls14Qr7dA-7ATIV3V-1" source="UlTXUrphSw9hJEKPX0pP-4" target="UlTXUrphSw9hJEKPX0pP-1">
          
          <mxGeometry relative="1" as="geometry" />
          
        </mxCell>
        
        <mxCell id="UlTXUrphSw9hJEKPX0pP-4" value="里程扣拥&lt;br&gt;huijin-plugin" style="rounded=0;whiteSpace=wrap;html=1;fillColor=#dae8fc;strokeColor=none;" vertex="1" parent="VlUls14Qr7dA-7ATIV3V-1">
          
          <mxGeometry x="340" y="210" width="100" height="40" as="geometry" />
          
        </mxCell>
        
        <mxCell id="UlTXUrphSw9hJEKPX0pP-5" value="……" style="rounded=0;whiteSpace=wrap;html=1;fillColor=#dae8fc;strokeColor=none;" vertex="1" parent="VlUls14Qr7dA-7ATIV3V-1">
          
          <mxGeometry x="480" y="210" width="100" height="40" as="geometry" />
          
        </mxCell>
        
        <mxCell id="UlTXUrphSw9hJEKPX0pP-23" style="edgeStyle=orthogonalEdgeStyle;rounded=0;orthogonalLoop=1;jettySize=auto;html=1;entryX=0.91;entryY=-0.025;entryDx=0;entryDy=0;entryPerimeter=0;" edge="1" parent="VlUls14Qr7dA-7ATIV3V-1" source="UlTXUrphSw9hJEKPX0pP-12" target="UlTXUrphSw9hJEKPX0pP-0">
          
          <mxGeometry relative="1" as="geometry" />
          
        </mxCell>
        
        <mxCell id="UlTXUrphSw9hJEKPX0pP-12" value="规则页面" style="rounded=0;whiteSpace=wrap;html=1;fillColor=#E6E6E6;strokeColor=none;" vertex="1" parent="VlUls14Qr7dA-7ATIV3V-1">
          
          <mxGeometry x="640" y="300" width="110" height="60" as="geometry" />
          
        </mxCell>
        
        <mxCell id="UlTXUrphSw9hJEKPX0pP-17" value="事件" style="rounded=0;whiteSpace=wrap;html=1;fillColor=#FFF2CC;strokeColor=none;" vertex="1" parent="VlUls14Qr7dA-7ATIV3V-1">
          
          <mxGeometry x="41" y="450" width="89" height="40" as="geometry" />
          
        </mxCell>
        
        <mxCell id="UlTXUrphSw9hJEKPX0pP-18" value="策略" style="rounded=0;whiteSpace=wrap;html=1;fillColor=#FFF2CC;strokeColor=none;" vertex="1" parent="VlUls14Qr7dA-7ATIV3V-1">
          
          <mxGeometry x="212" y="450" width="90" height="40" as="geometry" />
          
        </mxCell>
        
        <mxCell id="UlTXUrphSw9hJEKPX0pP-19" value="规则" style="rounded=0;whiteSpace=wrap;html=1;fillColor=#FFF2CC;strokeColor=none;" vertex="1" parent="VlUls14Qr7dA-7ATIV3V-1">
          
          <mxGeometry x="369" y="450" width="90" height="40" as="geometry" />
          
        </mxCell>
        
        <mxCell id="UlTXUrphSw9hJEKPX0pP-20" value="条件因子" style="rounded=0;whiteSpace=wrap;html=1;fillColor=#FFF2CC;strokeColor=none;" vertex="1" parent="VlUls14Qr7dA-7ATIV3V-1">
          
          <mxGeometry x="520" y="450" width="90" height="40" as="geometry" />
          
        </mxCell>
        
        <mxCell id="UlTXUrphSw9hJEKPX0pP-21" value="脚本" style="rounded=0;whiteSpace=wrap;html=1;fillColor=#FFF2CC;strokeColor=none;" vertex="1" parent="VlUls14Qr7dA-7ATIV3V-1">
          
          <mxGeometry x="670" y="450" width="90" height="40" as="geometry" />
          
        </mxCell>
        
        <mxCell id="UlTXUrphSw9hJEKPX0pP-25" style="edgeStyle=orthogonalEdgeStyle;rounded=0;orthogonalLoop=1;jettySize=auto;html=1;" edge="1" parent="VlUls14Qr7dA-7ATIV3V-1" source="UlTXUrphSw9hJEKPX0pP-24" target="UlTXUrphSw9hJEKPX0pP-12">
          
          <mxGeometry relative="1" as="geometry" />
          
        </mxCell>
        
        <mxCell id="UlTXUrphSw9hJEKPX0pP-24" value="配置规则" style="rounded=0;whiteSpace=wrap;html=1;fillColor=#dae8fc;strokeColor=none;" vertex="1" parent="VlUls14Qr7dA-7ATIV3V-1">
          
          <mxGeometry x="645" y="208" width="100" height="40" as="geometry" />
          
        </mxCell>
        
      </root>
      
    </mxGraphModel>
    
  </diagram>
  <diagram id="SlGiDcC_5EFLvLbteVc1" name="权益中心">
    
    <mxGraphModel dx="2306" dy="2300" grid="1" gridSize="10" guides="1" tooltips="1" connect="1" arrows="1" fold="1" page="1" pageScale="1" pageWidth="827" pageHeight="1169" math="0" shadow="0">
      
      <root>
        
        <mxCell id="nzMVDWFstQ6U59dOs8_J-0" />
        
        <mxCell id="nzMVDWFstQ6U59dOs8_J-1" parent="nzMVDWFstQ6U59dOs8_J-0" />
        
        <mxCell id="tMMKQgv83k__X11wtreu-0" value="" style="rounded=0;whiteSpace=wrap;html=1;dashed=1;strokeColor=#FFCCE6;" parent="nzMVDWFstQ6U59dOs8_J-1" vertex="1">
          
          <mxGeometry x="1360" y="-980" width="250" height="570" as="geometry" />
          
        </mxCell>
        
        <mxCell id="tMMKQgv83k__X11wtreu-1" value="" style="rounded=0;whiteSpace=wrap;html=1;dashed=1;strokeColor=#FFCCE6;" parent="nzMVDWFstQ6U59dOs8_J-1" vertex="1">
          
          <mxGeometry x="60" y="-650" width="1217" height="220" as="geometry" />
          
        </mxCell>
        
        <mxCell id="tMMKQgv83k__X11wtreu-2" value="" style="rounded=0;whiteSpace=wrap;html=1;dashed=1;strokeColor=#FFCCE6;" parent="nzMVDWFstQ6U59dOs8_J-1" vertex="1">
          
          <mxGeometry x="60" y="-980" width="1217" height="280" as="geometry" />
          
        </mxCell>
        
        <mxCell id="tMMKQgv83k__X11wtreu-3" value="&lt;font style=&quot;font-size: 18px&quot;&gt;fliggyright(权益平台)&lt;br&gt;&lt;/font&gt;&lt;br&gt;&lt;div style=&quot;text-align: left&quot;&gt;&lt;span&gt;1.权益管理，支持父子权益组合&lt;/span&gt;&lt;/div&gt;&lt;div style=&quot;text-align: left&quot;&gt;&lt;span&gt;2.权益素材管理&lt;/span&gt;&lt;/div&gt;&lt;div style=&quot;text-align: left&quot;&gt;&lt;span&gt;3.权益投放规则管理&lt;/span&gt;&lt;/div&gt;&lt;div style=&quot;text-align: left&quot;&gt;&lt;span&gt;4.权益关联二方/三方优惠、资产系统，对接发放、核销接口&lt;/span&gt;&lt;/div&gt;&lt;div style=&quot;text-align: left&quot;&gt;&lt;span&gt;5.维护用户权益资产关联关系&lt;/span&gt;&lt;/div&gt;&lt;div style=&quot;text-align: left&quot;&gt;&lt;span&gt;6.保障组合权益发放事务&lt;/span&gt;&lt;/div&gt;&lt;div style=&quot;text-align: left&quot;&gt;7.维护组合权益总库存、使用规则&lt;/div&gt;" style="rounded=0;whiteSpace=wrap;html=1;fillColor=#7EA6E0;strokeColor=none;" parent="nzMVDWFstQ6U59dOs8_J-1" vertex="1">
          
          <mxGeometry x="747" y="-889" width="370" height="159" as="geometry" />
          
        </mxCell>
        
        <mxCell id="tMMKQgv83k__X11wtreu-4" value="&lt;font style=&quot;font-size: 14px&quot;&gt;飞猪权益中心&lt;/font&gt;" style="rounded=0;whiteSpace=wrap;html=1;fillColor=#FFCCCC;strokeColor=none;" parent="nzMVDWFstQ6U59dOs8_J-1" vertex="1">
          
          <mxGeometry x="90" y="-990" width="90" height="30" as="geometry" />
          
        </mxCell>
        
        <mxCell id="tMMKQgv83k__X11wtreu-5" value="&lt;font style=&quot;font-size: 18px&quot;&gt;tripbp(发奖平台)&lt;br&gt;&lt;/font&gt;&lt;br&gt;&lt;div style=&quot;text-align: left&quot;&gt;&lt;span&gt;1.配置发放权益规则&lt;/span&gt;&lt;/div&gt;&lt;div style=&quot;text-align: left&quot;&gt;&lt;span&gt;2.权益发放任务、接口&lt;/span&gt;&lt;/div&gt;" style="rounded=0;whiteSpace=wrap;html=1;fillColor=#CCE5FF;strokeColor=none;" parent="nzMVDWFstQ6U59dOs8_J-1" vertex="1">
          
          <mxGeometry x="197" y="-800" width="280" height="70" as="geometry" />
          
        </mxCell>
        
        <mxCell id="tMMKQgv83k__X11wtreu-6" value="&lt;font style=&quot;font-size: 18px&quot;&gt;ump(优惠中台)&lt;br&gt;&lt;/font&gt;&lt;br&gt;&lt;div style=&quot;text-align: left&quot;&gt;&lt;span&gt;1.计算优惠&lt;/span&gt;&lt;/div&gt;&lt;div style=&quot;text-align: left&quot;&gt;&lt;span&gt;2.使用优惠券&lt;/span&gt;&lt;/div&gt;" style="rounded=0;whiteSpace=wrap;html=1;fillColor=#E6D0DE;strokeColor=none;" parent="nzMVDWFstQ6U59dOs8_J-1" vertex="1">
          
          <mxGeometry x="970" y="-570" width="260" height="110" as="geometry" />
          
        </mxCell>
        
        <mxCell id="tMMKQgv83k__X11wtreu-7" value="&lt;font style=&quot;font-size: 18px&quot;&gt;promotion-center(权益中台)&lt;br&gt;&lt;/font&gt;&lt;br&gt;&lt;div style=&quot;text-align: left&quot;&gt;&lt;span&gt;1.发放优惠券、&lt;/span&gt;&lt;span&gt;发放部分权益（龙腾）&lt;/span&gt;&lt;/div&gt;&lt;div style=&quot;text-align: left&quot;&gt;&lt;span&gt;2.维护用户优惠券、权益资产关联&lt;/span&gt;&lt;/div&gt;" style="rounded=0;whiteSpace=wrap;html=1;fillColor=#CDA2BE;strokeColor=none;" parent="nzMVDWFstQ6U59dOs8_J-1" vertex="1">
          
          <mxGeometry x="577" y="-570" width="260" height="110" as="geometry" />
          
        </mxCell>
        
        <mxCell id="tMMKQgv83k__X11wtreu-8" value="&lt;font style=&quot;font-size: 18px&quot;&gt;二方权益系统&lt;br&gt;&lt;/font&gt;&lt;br&gt;1.星巴克、支付宝汇率等权益发放" style="rounded=0;whiteSpace=wrap;html=1;fillColor=#67AB9F;strokeColor=none;" parent="nzMVDWFstQ6U59dOs8_J-1" vertex="1">
          
          <mxGeometry x="1386" y="-889" width="190" height="95" as="geometry" />
          
        </mxCell>
        
        <mxCell id="tMMKQgv83k__X11wtreu-9" value="&lt;font style=&quot;font-size: 14px&quot;&gt;权益中台&lt;/font&gt;" style="rounded=0;whiteSpace=wrap;html=1;fillColor=#FFCCCC;strokeColor=none;" parent="nzMVDWFstQ6U59dOs8_J-1" vertex="1">
          
          <mxGeometry x="97" y="-660" width="90" height="30" as="geometry" />
          
        </mxCell>
        
        <mxCell id="tMMKQgv83k__X11wtreu-10" value="&lt;font style=&quot;font-size: 14px&quot;&gt;外部权益系统&lt;/font&gt;" style="rounded=0;whiteSpace=wrap;html=1;fillColor=#FFCCCC;strokeColor=none;" parent="nzMVDWFstQ6U59dOs8_J-1" vertex="1">
          
          <mxGeometry x="1380" y="-1000" width="100" height="30" as="geometry" />
          
        </mxCell>
        
        <mxCell id="tMMKQgv83k__X11wtreu-11" value="" style="rounded=0;whiteSpace=wrap;html=1;dashed=1;strokeColor=#FFCCE6;" parent="nzMVDWFstQ6U59dOs8_J-1" vertex="1">
          
          <mxGeometry x="60" y="-1130" width="1550" height="110" as="geometry" />
          
        </mxCell>
        
        <mxCell id="tMMKQgv83k__X11wtreu-12" value="&lt;font style=&quot;font-size: 14px&quot;&gt;应用场景&lt;/font&gt;" style="rounded=0;whiteSpace=wrap;html=1;fillColor=#FFCCCC;strokeColor=none;" parent="nzMVDWFstQ6U59dOs8_J-1" vertex="1">
          
          <mxGeometry x="97" y="-1140" width="90" height="30" as="geometry" />
          
        </mxCell>
        
        <mxCell id="tMMKQgv83k__X11wtreu-13" value="&lt;font style=&quot;font-size: 18px&quot;&gt;三方权益系统&lt;br&gt;&lt;/font&gt;&lt;br&gt;1.商家权益发放等" style="rounded=0;whiteSpace=wrap;html=1;fillColor=#D5E8D4;strokeColor=none;" parent="nzMVDWFstQ6U59dOs8_J-1" vertex="1">
          
          <mxGeometry x="1386" y="-745" width="190" height="95" as="geometry" />
          
        </mxCell>
        
        <mxCell id="tMMKQgv83k__X11wtreu-14" value="&lt;font style=&quot;font-size: 18px&quot;&gt;fp(资金中台)&lt;br&gt;&lt;/font&gt;&lt;br&gt;&lt;div style=&quot;text-align: left&quot;&gt;&lt;span&gt;1.发放里程、天猫积分&lt;/span&gt;&lt;/div&gt;&lt;div style=&quot;text-align: left&quot;&gt;&lt;span&gt;2.保存用户里程、积分资产&lt;/span&gt;&lt;/div&gt;" style="rounded=0;whiteSpace=wrap;html=1;fillColor=#FFCCE6;strokeColor=none;" parent="nzMVDWFstQ6U59dOs8_J-1" vertex="1">
          
          <mxGeometry x="197" y="-570" width="230" height="110" as="geometry" />
          
        </mxCell>
        
        <mxCell id="tMMKQgv83k__X11wtreu-15" value="&lt;font style=&quot;font-size: 14px&quot;&gt;导购权益展示&lt;/font&gt;" style="rounded=0;whiteSpace=wrap;html=1;fillColor=#99CCFF;strokeColor=none;" parent="nzMVDWFstQ6U59dOs8_J-1" vertex="1">
          
          <mxGeometry x="197" y="-1100" width="280" height="50" as="geometry" />
          
        </mxCell>
        
        <mxCell id="tMMKQgv83k__X11wtreu-16" value="&lt;font style=&quot;font-size: 14px&quot;&gt;导购权益领取 / 行为触发权益发放&lt;/font&gt;" style="rounded=0;whiteSpace=wrap;html=1;fillColor=#FFB570;strokeColor=none;" parent="nzMVDWFstQ6U59dOs8_J-1" vertex="1">
          
          <mxGeometry x="587" y="-1100" width="280" height="50" as="geometry" />
          
        </mxCell>
        
        <mxCell id="tMMKQgv83k__X11wtreu-17" value="&lt;font style=&quot;font-size: 14px&quot;&gt;交易/履约 权益使用&lt;/font&gt;" style="rounded=0;whiteSpace=wrap;html=1;fillColor=#9AC7BF;strokeColor=none;" parent="nzMVDWFstQ6U59dOs8_J-1" vertex="1">
          
          <mxGeometry x="987" y="-1100" width="280" height="50" as="geometry" />
          
        </mxCell>
        
        <mxCell id="tMMKQgv83k__X11wtreu-18" value="" style="endArrow=classic;html=1;exitX=0.5;exitY=1;exitDx=0;exitDy=0;entryX=0.5;entryY=0;entryDx=0;entryDy=0;strokeColor=#007FFF;fillColor=#66B2FF;" parent="nzMVDWFstQ6U59dOs8_J-1" source="tMMKQgv83k__X11wtreu-15" target="4DxCdc0aiG4xLUiA64zn-1" edge="1">
          
          <mxGeometry width="50" height="50" relative="1" as="geometry">
            
            <mxPoint x="857" y="-830" as="sourcePoint" />
            
            <mxPoint x="907" y="-880" as="targetPoint" />
            
          </mxGeometry>
          
        </mxCell>
        
        <mxCell id="tMMKQgv83k__X11wtreu-19" value="1.1 权益查询" style="edgeLabel;html=1;align=center;verticalAlign=middle;resizable=0;points=[];" parent="tMMKQgv83k__X11wtreu-18" connectable="0" vertex="1">
          
          <mxGeometry x="0.1526" relative="1" as="geometry">
            
            <mxPoint y="27" as="offset" />
            
          </mxGeometry>
          
        </mxCell>
        
        <mxCell id="tMMKQgv83k__X11wtreu-20" value="" style="endArrow=classic;html=1;strokeColor=#007FFF;fillColor=#66B2FF;exitX=0.5;exitY=1;exitDx=0;exitDy=0;" parent="nzMVDWFstQ6U59dOs8_J-1" source="4DxCdc0aiG4xLUiA64zn-1" target="tMMKQgv83k__X11wtreu-5" edge="1">
          
          <mxGeometry width="50" height="50" relative="1" as="geometry">
            
            <mxPoint x="540" y="-849" as="sourcePoint" />
            
            <mxPoint x="517" y="-870" as="targetPoint" />
            
          </mxGeometry>
          
        </mxCell>
        
        <mxCell id="tMMKQgv83k__X11wtreu-21" value="1.2 发放规则预判" style="edgeLabel;html=1;align=center;verticalAlign=middle;resizable=0;points=[];" parent="tMMKQgv83k__X11wtreu-20" connectable="0" vertex="1">
          
          <mxGeometry x="0.1259" y="4" relative="1" as="geometry">
            
            <mxPoint x="-10.99" y="-4.75" as="offset" />
            
          </mxGeometry>
          
        </mxCell>
        
        <mxCell id="tMMKQgv83k__X11wtreu-22" value="" style="endArrow=classic;html=1;strokeColor=#FFB570;fillColor=#66B2FF;exitX=0.5;exitY=1;exitDx=0;exitDy=0;entryX=0.75;entryY=0;entryDx=0;entryDy=0;" parent="nzMVDWFstQ6U59dOs8_J-1" source="tMMKQgv83k__X11wtreu-16" target="tMMKQgv83k__X11wtreu-5" edge="1">
          
          <mxGeometry width="50" height="50" relative="1" as="geometry">
            
            <mxPoint x="867" y="-730" as="sourcePoint" />
            
            <mxPoint x="917" y="-780" as="targetPoint" />
            
          </mxGeometry>
          
        </mxCell>
        
        <mxCell id="tMMKQgv83k__X11wtreu-23" value="2.1 权益发放" style="edgeLabel;html=1;align=center;verticalAlign=middle;resizable=0;points=[];" parent="tMMKQgv83k__X11wtreu-22" connectable="0" vertex="1">
          
          <mxGeometry x="0.3475" y="4" relative="1" as="geometry">
            
            <mxPoint x="86.45999999999998" y="-81.84" as="offset" />
            
          </mxGeometry>
          
        </mxCell>
        
        <mxCell id="tMMKQgv83k__X11wtreu-24" value="" style="endArrow=classic;html=1;strokeColor=#FFB570;fillColor=#66B2FF;exitX=1;exitY=0.75;exitDx=0;exitDy=0;entryX=-0.003;entryY=0.874;entryDx=0;entryDy=0;entryPerimeter=0;" parent="nzMVDWFstQ6U59dOs8_J-1" source="tMMKQgv83k__X11wtreu-5" target="tMMKQgv83k__X11wtreu-3" edge="1">
          
          <mxGeometry width="50" height="50" relative="1" as="geometry">
            
            <mxPoint x="777" y="-776" as="sourcePoint" />
            
            <mxPoint x="750" y="-770" as="targetPoint" />
            
          </mxGeometry>
          
        </mxCell>
        
        <mxCell id="tMMKQgv83k__X11wtreu-25" value="2.2 实际权益发放" style="edgeLabel;html=1;align=center;verticalAlign=middle;resizable=0;points=[];" parent="tMMKQgv83k__X11wtreu-24" connectable="0" vertex="1">
          
          <mxGeometry x="0.3475" y="4" relative="1" as="geometry">
            
            <mxPoint x="-34.07" y="3.75" as="offset" />
            
          </mxGeometry>
          
        </mxCell>
        
        <mxCell id="tMMKQgv83k__X11wtreu-26" value="" style="endArrow=classic;html=1;strokeColor=#FFB570;fillColor=#66B2FF;entryX=0.906;entryY=-0.014;entryDx=0;entryDy=0;entryPerimeter=0;" parent="nzMVDWFstQ6U59dOs8_J-1" target="tMMKQgv83k__X11wtreu-7" edge="1">
          
          <mxGeometry width="50" height="50" relative="1" as="geometry">
            
            <mxPoint x="813" y="-729" as="sourcePoint" />
            
            <mxPoint x="1197" y="-758" as="targetPoint" />
            
          </mxGeometry>
          
        </mxCell>
        
        <mxCell id="tMMKQgv83k__X11wtreu-27" value="2.3 最终权益发放" style="edgeLabel;html=1;align=center;verticalAlign=middle;resizable=0;points=[];" parent="tMMKQgv83k__X11wtreu-26" connectable="0" vertex="1">
          
          <mxGeometry x="0.3475" y="4" relative="1" as="geometry">
            
            <mxPoint x="-7.65" y="10.51" as="offset" />
            
          </mxGeometry>
          
        </mxCell>
        
        <mxCell id="tMMKQgv83k__X11wtreu-28" value="" style="endArrow=classic;html=1;strokeColor=#FFB570;fillColor=#66B2FF;entryX=0.5;entryY=0;entryDx=0;entryDy=0;exitX=0.142;exitY=0.999;exitDx=0;exitDy=0;exitPerimeter=0;" parent="nzMVDWFstQ6U59dOs8_J-1" source="tMMKQgv83k__X11wtreu-3" target="tMMKQgv83k__X11wtreu-14" edge="1">
          
          <mxGeometry width="50" height="50" relative="1" as="geometry">
            
            <mxPoint x="930" y="-760" as="sourcePoint" />
            
            <mxPoint x="717" y="-560" as="targetPoint" />
            
          </mxGeometry>
          
        </mxCell>
        
        <mxCell id="tMMKQgv83k__X11wtreu-29" value="2.3 最终权益发放" style="edgeLabel;html=1;align=center;verticalAlign=middle;resizable=0;points=[];" parent="tMMKQgv83k__X11wtreu-28" connectable="0" vertex="1">
          
          <mxGeometry x="0.3475" y="4" relative="1" as="geometry">
            
            <mxPoint x="-27.76" as="offset" />
            
          </mxGeometry>
          
        </mxCell>
        
        <mxCell id="tMMKQgv83k__X11wtreu-30" value="" style="endArrow=classic;html=1;strokeColor=#FFB570;fillColor=#66B2FF;" parent="nzMVDWFstQ6U59dOs8_J-1" edge="1">
          
          <mxGeometry width="50" height="50" relative="1" as="geometry">
            
            <mxPoint x="1117" y="-842.21" as="sourcePoint" />
            
            <mxPoint x="1357" y="-842" as="targetPoint" />
            
          </mxGeometry>
          
        </mxCell>
        
        <mxCell id="tMMKQgv83k__X11wtreu-31" value="2.3 最终权益发放" style="edgeLabel;html=1;align=center;verticalAlign=middle;resizable=0;points=[];" parent="tMMKQgv83k__X11wtreu-30" connectable="0" vertex="1">
          
          <mxGeometry x="0.3475" y="4" relative="1" as="geometry">
            
            <mxPoint x="-2" y="4.57" as="offset" />
            
          </mxGeometry>
          
        </mxCell>
        
        <mxCell id="tMMKQgv83k__X11wtreu-32" value="" style="endArrow=classic;html=1;strokeColor=#FFB570;fillColor=#66B2FF;exitX=0.5;exitY=1;exitDx=0;exitDy=0;entryX=0;entryY=1;entryDx=0;entryDy=0;" parent="nzMVDWFstQ6U59dOs8_J-1" target="tMMKQgv83k__X11wtreu-17" edge="1">
          
          <mxGeometry width="50" height="50" relative="1" as="geometry">
            
            <mxPoint x="987" y="-1050" as="sourcePoint" />
            
            <mxPoint x="527" y="-929" as="targetPoint" />
            
          </mxGeometry>
          
        </mxCell>
        
        <mxCell id="tMMKQgv83k__X11wtreu-33" value="" style="endArrow=classic;html=1;strokeColor=#67AB9F;fillColor=#66B2FF;exitX=0.75;exitY=1;exitDx=0;exitDy=0;" parent="nzMVDWFstQ6U59dOs8_J-1" source="tMMKQgv83k__X11wtreu-17" edge="1">
          
          <mxGeometry width="50" height="50" relative="1" as="geometry">
            
            <mxPoint x="1160" y="-1000" as="sourcePoint" />
            
            <mxPoint x="1197" y="-570" as="targetPoint" />
            
          </mxGeometry>
          
        </mxCell>
        
        <mxCell id="tMMKQgv83k__X11wtreu-34" value="3.1 优惠使用" style="edgeLabel;html=1;align=center;verticalAlign=middle;resizable=0;points=[];" parent="tMMKQgv83k__X11wtreu-33" connectable="0" vertex="1">
          
          <mxGeometry x="-0.5396" y="2" relative="1" as="geometry">
            
            <mxPoint y="18" as="offset" />
            
          </mxGeometry>
          
        </mxCell>
        
        <mxCell id="tMMKQgv83k__X11wtreu-35" value="" style="endArrow=classic;html=1;strokeColor=#67AB9F;fillColor=#66B2FF;entryX=0.946;entryY=1.017;entryDx=0;entryDy=0;entryPerimeter=0;" parent="nzMVDWFstQ6U59dOs8_J-1" target="tMMKQgv83k__X11wtreu-3" edge="1">
          
          <mxGeometry width="50" height="50" relative="1" as="geometry">
            
            <mxPoint x="1097" y="-570" as="sourcePoint" />
            
            <mxPoint x="1203.8899999999999" y="-560.1100000000001" as="targetPoint" />
            
          </mxGeometry>
          
        </mxCell>
        
        <mxCell id="tMMKQgv83k__X11wtreu-36" value="3.2 校验组合权益使用规则" style="edgeLabel;html=1;align=center;verticalAlign=middle;resizable=0;points=[];" parent="tMMKQgv83k__X11wtreu-35" connectable="0" vertex="1">
          
          <mxGeometry x="-0.5396" y="2" relative="1" as="geometry">
            
            <mxPoint x="19.49" y="-3.6799999999999997" as="offset" />
            
          </mxGeometry>
          
        </mxCell>
        
        <mxCell id="tMMKQgv83k__X11wtreu-37" value="" style="endArrow=classic;html=1;strokeColor=#67AB9F;fillColor=#66B2FF;entryX=0.838;entryY=0;entryDx=0;entryDy=0;exitX=0.25;exitY=1;exitDx=0;exitDy=0;entryPerimeter=0;" parent="nzMVDWFstQ6U59dOs8_J-1" source="tMMKQgv83k__X11wtreu-17" target="tMMKQgv83k__X11wtreu-3" edge="1">
          
          <mxGeometry width="50" height="50" relative="1" as="geometry">
            
            <mxPoint x="1103.11" y="-1010.0000000000001" as="sourcePoint" />
            
            <mxPoint x="1099.9999999999998" y="-570.1100000000001" as="targetPoint" />
            
          </mxGeometry>
          
        </mxCell>
        
        <mxCell id="tMMKQgv83k__X11wtreu-38" value="3.3 权益核销" style="edgeLabel;html=1;align=center;verticalAlign=middle;resizable=0;points=[];" parent="tMMKQgv83k__X11wtreu-37" connectable="0" vertex="1">
          
          <mxGeometry x="-0.5396" y="2" relative="1" as="geometry">
            
            <mxPoint x="-19.01" y="91" as="offset" />
            
          </mxGeometry>
          
        </mxCell>
        
        <mxCell id="tMMKQgv83k__X11wtreu-39" value="" style="endArrow=classic;html=1;strokeColor=#67AB9F;fillColor=#66B2FF;entryX=0.109;entryY=-0.001;entryDx=0;entryDy=0;exitX=0.75;exitY=1;exitDx=0;exitDy=0;entryPerimeter=0;" parent="nzMVDWFstQ6U59dOs8_J-1" target="tMMKQgv83k__X11wtreu-6" edge="1">
          
          <mxGeometry width="50" height="50" relative="1" as="geometry">
            
            <mxPoint x="999.9999999999995" y="-730" as="sourcePoint" />
            
            <mxPoint x="921.39" y="-609" as="targetPoint" />
            
          </mxGeometry>
          
        </mxCell>
        
        <mxCell id="tMMKQgv83k__X11wtreu-40" value="3.4 最终权益核销" style="edgeLabel;html=1;align=center;verticalAlign=middle;resizable=0;points=[];" parent="tMMKQgv83k__X11wtreu-39" connectable="0" vertex="1">
          
          <mxGeometry x="-0.5396" y="2" relative="1" as="geometry">
            
            <mxPoint x="-32" y="82.86" as="offset" />
            
          </mxGeometry>
          
        </mxCell>
        
        <mxCell id="tMMKQgv83k__X11wtreu-41" value="" style="endArrow=classic;html=1;strokeColor=#67AB9F;fillColor=#66B2FF;exitX=0.75;exitY=1;exitDx=0;exitDy=0;" parent="nzMVDWFstQ6U59dOs8_J-1" edge="1">
          
          <mxGeometry width="50" height="50" relative="1" as="geometry">
            
            <mxPoint x="1116.9999999999995" y="-770" as="sourcePoint" />
            
            <mxPoint x="1360" y="-769" as="targetPoint" />
            
          </mxGeometry>
          
        </mxCell>
        
        <mxCell id="tMMKQgv83k__X11wtreu-42" value="3.4最终权益核销" style="edgeLabel;html=1;align=center;verticalAlign=middle;resizable=0;points=[];" parent="tMMKQgv83k__X11wtreu-41" connectable="0" vertex="1">
          
          <mxGeometry x="0.2795" y="1" relative="1" as="geometry">
            
            <mxPoint x="5" y="5.36" as="offset" />
            
          </mxGeometry>
          
        </mxCell>
        
        <mxCell id="tMMKQgv83k__X11wtreu-43" value="" style="endArrow=classic;html=1;strokeColor=#67AB9F;fillColor=#66B2FF;entryX=1;entryY=0;entryDx=0;entryDy=0;exitX=0.75;exitY=1;exitDx=0;exitDy=0;" parent="nzMVDWFstQ6U59dOs8_J-1" target="tMMKQgv83k__X11wtreu-14" edge="1">
          
          <mxGeometry width="50" height="50" relative="1" as="geometry">
            
            <mxPoint x="949.9999999999995" y="-730" as="sourcePoint" />
            
            <mxPoint x="950" y="-570" as="targetPoint" />
            
          </mxGeometry>
          
        </mxCell>
        
        <mxCell id="tMMKQgv83k__X11wtreu-44" value="3.4 最终权益核销" style="edgeLabel;html=1;align=center;verticalAlign=middle;resizable=0;points=[];" parent="tMMKQgv83k__X11wtreu-43" connectable="0" vertex="1">
          
          <mxGeometry x="0.4945" y="2" relative="1" as="geometry">
            
            <mxPoint as="offset" />
            
          </mxGeometry>
          
        </mxCell>
        
        <mxCell id="4DxCdc0aiG4xLUiA64zn-1" value="&lt;font style=&quot;font-size: 18px&quot;&gt;ffatouch(权益触达)&lt;br&gt;&lt;/font&gt;&lt;br&gt;&lt;div style=&quot;text-align: left&quot;&gt;1.统一权益透出接口&lt;/div&gt;" style="rounded=0;whiteSpace=wrap;html=1;fillColor=#CCE5FF;strokeColor=none;" vertex="1" parent="nzMVDWFstQ6U59dOs8_J-1">
          
          <mxGeometry x="197" y="-940" width="280" height="70" as="geometry" />
          
        </mxCell>
        
        <mxCell id="4DxCdc0aiG4xLUiA64zn-2" value="" style="endArrow=classic;html=1;strokeColor=#007FFF;fillColor=#66B2FF;entryX=0;entryY=0.25;entryDx=0;entryDy=0;exitX=1;exitY=0.5;exitDx=0;exitDy=0;" edge="1" parent="nzMVDWFstQ6U59dOs8_J-1" source="4DxCdc0aiG4xLUiA64zn-1">
          
          <mxGeometry width="50" height="50" relative="1" as="geometry">
            
            <mxPoint x="477" y="-930" as="sourcePoint" />
            
            <mxPoint x="747" y="-834.25" as="targetPoint" />
            
          </mxGeometry>
          
        </mxCell>
        
        <mxCell id="4DxCdc0aiG4xLUiA64zn-3" value="1.3 权益查询" style="edgeLabel;html=1;align=center;verticalAlign=middle;resizable=0;points=[];" connectable="0" vertex="1" parent="4DxCdc0aiG4xLUiA64zn-2">
          
          <mxGeometry x="0.1259" y="4" relative="1" as="geometry">
            
            <mxPoint y="-0.040000000000000036" as="offset" />
            
          </mxGeometry>
          
        </mxCell>
        
      </root>
      
    </mxGraphModel>
    
  </diagram>
  <diagram id="pxuI6PvRgfuEpNl6qfCn" name="里程规则中心">
    <mxGraphModel dx="2066" dy="1000" grid="0" gridSize="10" guides="1" tooltips="1" connect="1" arrows="1" fold="1" page="1" pageScale="1" pageWidth="827" pageHeight="1169" math="0" shadow="0">
      <root>
        <mxCell id="QO7hmLqBhtB2eLHKNVZe-0" />
        <mxCell id="QO7hmLqBhtB2eLHKNVZe-1" parent="QO7hmLqBhtB2eLHKNVZe-0" />
        <mxCell id="5vM_X5zi0CZzHLOCp_qb-2" value="07.10&lt;br&gt;&lt;br&gt;提测" style="rounded=0;whiteSpace=wrap;html=1;fillColor=#9AC7BF;strokeColor=none;" vertex="1" parent="QO7hmLqBhtB2eLHKNVZe-1">
          <mxGeometry x="204" y="26" width="91" height="70" as="geometry" />
        </mxCell>
        <mxCell id="5vM_X5zi0CZzHLOCp_qb-3" value="" style="edgeStyle=orthogonalEdgeStyle;rounded=0;orthogonalLoop=1;jettySize=auto;html=1;" edge="1" parent="QO7hmLqBhtB2eLHKNVZe-1" source="5vM_X5zi0CZzHLOCp_qb-0" target="5vM_X5zi0CZzHLOCp_qb-2">
          <mxGeometry relative="1" as="geometry" />
        </mxCell>
        <mxCell id="5vM_X5zi0CZzHLOCp_qb-0" value="07.02&lt;br&gt;&lt;br&gt;KO" style="rounded=0;whiteSpace=wrap;html=1;fillColor=#D5E8D4;strokeColor=none;" vertex="1" parent="QO7hmLqBhtB2eLHKNVZe-1">
          <mxGeometry x="63" y="26" width="91" height="70" as="geometry" />
        </mxCell>
        <mxCell id="5vM_X5zi0CZzHLOCp_qb-1" value="07.23&lt;br&gt;&lt;br&gt;上线" style="rounded=0;whiteSpace=wrap;html=1;fillColor=#67AB9F;strokeColor=none;" vertex="1" parent="QO7hmLqBhtB2eLHKNVZe-1">
          <mxGeometry x="347" y="26" width="91" height="70" as="geometry" />
        </mxCell>
        <mxCell id="5vM_X5zi0CZzHLOCp_qb-4" value="" style="edgeStyle=orthogonalEdgeStyle;rounded=0;orthogonalLoop=1;jettySize=auto;html=1;" edge="1" parent="QO7hmLqBhtB2eLHKNVZe-1" source="5vM_X5zi0CZzHLOCp_qb-2" target="5vM_X5zi0CZzHLOCp_qb-1">
          <mxGeometry relative="1" as="geometry" />
        </mxCell>
      </root>
    </mxGraphModel>
  </diagram>
</mxfile>
